<svg width="20" height="20" viewBox="0 0 20 20" fill="none" xmlns="http://www.w3.org/2000/svg">
<path d="M3.5206 20H16.4794C18.8015 20 20 18.8015 20 16.5115V3.4885C20 1.1985 18.8015 0 16.4794 0H3.5206C1.2092 0 0 1.1878 0 3.4885V16.5115C0 18.8015 1.2092 20 3.5206 20ZM5.61798 3.88443C6.20653 3.88443 6.64527 4.22686 6.89139 4.687C7.13751 4.22686 7.58695 3.88443 8.14339 3.88443C9.02087 3.88443 9.67362 4.56929 9.67362 5.51097C9.67362 6.96629 8.10059 8.2397 7.18031 8.79615C7.084 8.84965 6.98769 8.91386 6.90209 8.91386C6.82718 8.91386 6.70947 8.86035 6.61316 8.79615C5.71429 8.1755 4.10915 6.96629 4.10915 5.51097C4.10915 4.56929 4.7619 3.88443 5.61798 3.88443ZM4.81541 12.0492C4.40877 12.0492 4.10915 11.7389 4.10915 11.343C4.10915 10.9577 4.40877 10.6688 4.81541 10.6688H15.1953C15.5912 10.6688 15.8909 10.9577 15.8909 11.343C15.8909 11.7389 15.5912 12.0492 15.1953 12.0492H4.81541ZM4.81541 15.6126C4.40877 15.6126 4.10915 15.313 4.10915 14.9278C4.10915 14.5425 4.40877 14.2322 4.81541 14.2322H12.4987C12.8946 14.2322 13.1942 14.5425 13.1942 14.9278C13.1942 15.313 12.8946 15.6126 12.4987 15.6126H4.81541Z" fill="#1D1D1F"/>
</svg>
