<svg width="33" height="33" viewBox="0 0 33 33" fill="none" xmlns="http://www.w3.org/2000/svg">
<path d="M16.492 33C25.5355 33 33 25.5319 33 16.5C33 7.46808 25.5196 0 16.4761 0C7.44853 0 0 7.46808 0 16.5C0 25.5319 7.46448 33 16.492 33ZM16.492 24.8936C15.6307 24.8936 14.9927 24.2872 14.9927 23.4255V15.6702L15.1522 12.2553L13.6689 14.1064L11.8347 16.0372C11.5795 16.3085 11.2127 16.4681 10.8139 16.4681C10.0164 16.4681 9.42629 15.8936 9.42629 15.1117C9.42629 14.7128 9.55389 14.3936 9.82504 14.1064L15.3117 8.55319C15.6786 8.15426 16.0454 7.97872 16.492 7.97872C16.9705 7.97872 17.3374 8.17021 17.7042 8.55319L23.159 14.1064C23.4461 14.3936 23.5737 14.7128 23.5737 15.1117C23.5737 15.8936 22.9836 16.4681 22.1861 16.4681C21.7873 16.4681 21.4205 16.3245 21.1653 16.0372L19.347 14.1223L17.8478 12.2394L18.0072 15.6702V23.4255C18.0072 24.2872 17.3693 24.8936 16.492 24.8936Z" fill="#FF4361"/>
</svg>
