<svg width="30" height="30" viewBox="0 0 30 30" fill="none" xmlns="http://www.w3.org/2000/svg">
<path d="M9.58112 22.165H19.747C21.3395 22.165 22.1641 21.3279 22.1641 19.7258V10.5897C22.1641 9.00209 21.3395 8.16498 19.747 8.16498H9.58112C8.00292 8.16498 7.16406 8.98766 7.16406 10.5897V19.7258C7.16406 21.3279 8.00292 22.165 9.58112 22.165ZM9.58112 20.6351C8.96975 20.6351 8.67117 20.3464 8.67117 19.7114V12.7836C8.67117 12.1196 8.99818 11.8021 9.62378 11.8021H19.6902C20.3158 11.8021 20.657 12.1196 20.657 12.7836V19.7114C20.657 20.3464 20.3584 20.6351 19.747 20.6351H9.58112ZM13.1925 14.5155H13.7044C14.0314 14.5155 14.1309 14.4145 14.1309 14.1114V13.5774C14.1309 13.2454 14.0314 13.1444 13.7044 13.1444H13.1925C12.8797 13.1444 12.7802 13.2454 12.7802 13.5774V14.1114C12.7802 14.4145 12.8797 14.5155 13.1925 14.5155ZM15.6238 14.5155H16.1357C16.4627 14.5155 16.548 14.4145 16.548 14.1114V13.5774C16.548 13.2454 16.4627 13.1444 16.1357 13.1444H15.6238C15.2968 13.1444 15.1973 13.2454 15.1973 13.5774V14.1114C15.1973 14.4145 15.2968 14.5155 15.6238 14.5155ZM18.0409 14.5155H18.5385C18.8655 14.5155 18.9793 14.4145 18.9793 14.1114V13.5774C18.9793 13.2454 18.8655 13.1444 18.5385 13.1444H18.0409C17.7139 13.1444 17.6001 13.2454 17.6001 13.5774V14.1114C17.6001 14.4145 17.7139 14.5155 18.0409 14.5155ZM10.7897 16.9258H11.2873C11.6143 16.9258 11.7281 16.8248 11.7281 16.5217V15.9877C11.7281 15.6702 11.6143 15.5691 11.2873 15.5691H10.7897C10.4627 15.5691 10.3489 15.6702 10.3489 15.9877V16.5217C10.3489 16.8248 10.4627 16.9258 10.7897 16.9258ZM13.1925 16.9258H13.7044C14.0314 16.9258 14.1309 16.8248 14.1309 16.5217V15.9877C14.1309 15.6702 14.0314 15.5691 13.7044 15.5691H13.1925C12.8797 15.5691 12.7802 15.6702 12.7802 15.9877V16.5217C12.7802 16.8248 12.8797 16.9258 13.1925 16.9258ZM15.6238 16.9258H16.1357C16.4627 16.9258 16.548 16.8248 16.548 16.5217V15.9877C16.548 15.6702 16.4627 15.5691 16.1357 15.5691H15.6238C15.2968 15.5691 15.1973 15.6702 15.1973 15.9877V16.5217C15.1973 16.8248 15.2968 16.9258 15.6238 16.9258ZM18.0409 16.9258H18.5385C18.8655 16.9258 18.9793 16.8248 18.9793 16.5217V15.9877C18.9793 15.6702 18.8655 15.5691 18.5385 15.5691H18.0409C17.7139 15.5691 17.6001 15.6702 17.6001 15.9877V16.5217C17.6001 16.8248 17.7139 16.9258 18.0409 16.9258ZM10.7897 19.3506H11.2873C11.6143 19.3506 11.7281 19.2495 11.7281 18.9176V18.3836C11.7281 18.0805 11.6143 17.9794 11.2873 17.9794H10.7897C10.4627 17.9794 10.3489 18.0805 10.3489 18.3836V18.9176C10.3489 19.2495 10.4627 19.3506 10.7897 19.3506ZM13.1925 19.3506H13.7044C14.0314 19.3506 14.1309 19.2495 14.1309 18.9176V18.3836C14.1309 18.0805 14.0314 17.9794 13.7044 17.9794H13.1925C12.8797 17.9794 12.7802 18.0805 12.7802 18.3836V18.9176C12.7802 19.2495 12.8797 19.3506 13.1925 19.3506ZM15.6238 19.3506H16.1357C16.4627 19.3506 16.548 19.2495 16.548 18.9176V18.3836C16.548 18.0805 16.4627 17.9794 16.1357 17.9794H15.6238C15.2968 17.9794 15.1973 18.0805 15.1973 18.3836V18.9176C15.1973 19.2495 15.2968 19.3506 15.6238 19.3506Z" fill="#9BA1A5"/>
<path d="M28.6641 14.665C28.6641 6.93299 22.396 0.664978 14.6641 0.664978C6.93208 0.664978 0.664062 6.93299 0.664062 14.665C0.664062 22.397 6.93208 28.665 14.6641 28.665C22.396 28.665 28.6641 22.397 28.6641 14.665Z" stroke="#4A4B4E" stroke-opacity="0.33" stroke-width="1.33"/>
</svg>
