<svg width="26" height="20" viewBox="0 0 26 20" fill="none" xmlns="http://www.w3.org/2000/svg">
<path fill-rule="evenodd" clip-rule="evenodd" d="M16.1402 0C16.4561 0 16.7549 0.145358 16.9523 0.395058L19.136 3.15789H22.88C24.6031 3.15789 26 4.57173 26 6.31579V16.8421C26 18.5862 24.6031 20 22.88 20H3.12C1.39687 20 0 18.5862 0 16.8421V6.31579C0 4.57173 1.39687 3.15789 3.12 3.15789H6.86296L9.04775 0.395058C9.24511 0.145358 9.54391 0 9.85985 0H16.1402ZM13 5.26318C9.6973 5.26318 7.01996 7.97304 7.01996 11.3158C7.01996 14.6586 9.6973 17.3684 13 17.3684C16.3026 17.3684 18.98 14.6586 18.98 11.3158C18.98 7.97304 16.3026 5.26318 13 5.26318ZM13 6.84229C15.4411 6.84229 17.42 8.84522 17.42 11.316C17.42 13.7867 15.4411 15.7897 13 15.7897C10.5589 15.7897 8.57999 13.7867 8.57999 11.316C8.57999 8.84522 10.5589 6.84229 13 6.84229ZM20.28 5C19.8492 5 19.5 5.35346 19.5 5.78947C19.5 6.22549 19.8492 6.57895 20.28 6.57895C20.7108 6.57895 21.06 6.22549 21.06 5.78947C21.06 5.35346 20.7108 5 20.28 5ZM4.67994 1.05273C4.96713 1.05273 5.19994 1.28837 5.19994 1.57905V2.10537H3.11994V1.57905C3.11994 1.28837 3.35275 1.05273 3.63994 1.05273H4.67994Z" fill="white"/>
</svg>
