<svg width="20" height="20" viewBox="0 0 20 20" fill="none" xmlns="http://www.w3.org/2000/svg">
<path d="M0 10C0 4.47715 4.47715 0 10 0C15.5228 0 20 4.47715 20 10C20 15.5228 15.5228 20 10 20C4.47715 20 0 15.5228 0 10Z" fill="#FF4361"/>
<path d="M8.8587 15C9.25 15 9.58696 14.8009 9.82609 14.4469L14.7283 6.68142C14.8696 6.44912 15 6.18363 15 5.9292C15 5.37611 14.5109 5 14 5C13.6739 5 13.3696 5.19912 13.1413 5.56416L8.81522 12.5996L6.80435 10C6.54348 9.64602 6.28261 9.5354 5.95652 9.5354C5.42391 9.5354 5 9.97788 5 10.5199C5 10.7854 5.09783 11.0398 5.28261 11.2721L7.84783 14.4469C8.1413 14.823 8.45652 15 8.8587 15Z" fill="#FFECF1"/>
</svg>
