<svg width="25" height="25" viewBox="0 0 25 25" fill="none" xmlns="http://www.w3.org/2000/svg">
<path d="M12.5 25C19.3369 25 25 19.349 25 12.5C25 5.66312 19.3369 0 12.4879 0C5.65102 0 0 5.66312 0 12.5C0 19.349 5.66312 25 12.5 25ZM8.04695 18.6592C8.47047 18.4172 8.61568 18.1026 8.61568 17.5218V8.20426C8.61568 6.98209 9.24492 6.36496 10.4792 6.36496H17.062C18.2962 6.36496 18.9134 6.98209 18.9134 8.20426V16.8199C18.9134 18.0421 18.2962 18.6592 17.062 18.6592H8.04695ZM11.0479 9.91046H16.4932C16.7231 9.91046 16.9046 9.72895 16.9046 9.49903C16.9046 9.28122 16.7352 9.11181 16.4932 9.11181H11.0479C10.8059 9.11181 10.6365 9.28122 10.6365 9.49903C10.6365 9.72895 10.8059 9.91046 11.0479 9.91046ZM6.05034 11.9797C6.05034 11.2052 6.55857 10.7575 7.27251 10.7575H7.51452V17.0136C7.51452 17.4855 7.1636 17.7396 6.78848 17.7396C6.38916 17.7396 6.05034 17.4855 6.05034 17.0136V11.9797ZM11.0479 11.8829H16.4932C16.7352 11.8829 16.9046 11.7135 16.9046 11.4835C16.9046 11.2415 16.7352 11.0842 16.4932 11.0842H11.0479C10.8059 11.0842 10.6365 11.2415 10.6365 11.4835C10.6365 11.7135 10.8059 11.8829 11.0479 11.8829ZM14.5087 13.8795H16.4932C16.7231 13.8795 16.8925 13.698 16.8925 13.4923C16.8925 13.2623 16.7231 13.0808 16.4932 13.0808H14.5087C14.2788 13.0808 14.1094 13.2623 14.1094 13.4923C14.1094 13.698 14.2788 13.8795 14.5087 13.8795ZM11.302 15.8398H12.6815C13.105 15.8398 13.3712 15.5857 13.3712 15.1621V13.7706C13.3712 13.3349 13.105 13.0808 12.6815 13.0808H11.302C10.8785 13.0808 10.6365 13.3349 10.6365 13.7706V15.1621C10.6365 15.5857 10.8785 15.8398 11.302 15.8398ZM14.5087 15.8398H16.4932C16.7352 15.8398 16.8925 15.6825 16.8925 15.4526C16.8925 15.2106 16.7231 15.0411 16.4932 15.0411H14.5087C14.2788 15.0411 14.1094 15.2106 14.1094 15.4526C14.1094 15.6825 14.2788 15.8398 14.5087 15.8398Z" fill="#9BA1A5"/>
</svg>
