<svg width="25" height="25" viewBox="0 0 25 25" fill="none" xmlns="http://www.w3.org/2000/svg">
<path d="M12.494 25C19.3451 25 25 19.3424 25 12.5C25 5.65764 19.333 0 12.4819 0C5.64282 0 0 5.65764 0 12.5C0 19.3424 5.65491 25 12.494 25ZM9.50942 7.03578C10.8748 7.03578 11.8898 7.82157 12.4819 8.8854C13.0739 7.82157 14.1131 7.03578 15.4543 7.03578C17.5205 7.03578 19.0551 8.61944 19.0551 10.8438C19.0551 14.2771 15.2972 17.2268 13.1464 18.617C12.941 18.75 12.6873 18.9192 12.506 18.9192C12.3369 18.9192 12.0469 18.75 11.8173 18.617C9.65442 17.251 5.92073 14.2771 5.92073 10.8438C5.92073 8.61944 7.45529 7.03578 9.50942 7.03578Z" fill="#9BA1A5"/>
</svg>
