<svg width="30" height="25" viewBox="0 0 30 25" fill="none" xmlns="http://www.w3.org/2000/svg">
<path d="M0 12.5C0 5.59644 5.59644 0 12.5 0H17.5C24.4036 0 30 5.59644 30 12.5C30 19.4036 24.4036 25 17.5 25H12.5C5.59644 25 0 19.4036 0 12.5Z" fill="#FFECF1"/>
<path d="M10 13.3277C10 13.6371 10.2576 13.8537 10.5797 13.8537H14.4444L12.3671 19.1291C12.0773 19.9026 12.9308 20.3203 13.4622 19.7015L19.7746 12.1364C19.9195 11.9972 20 11.827 20 11.6723C20 11.3629 19.7262 11.1463 19.4042 11.1463H15.5556L17.6006 5.87094C17.9066 5.09742 17.0531 4.67972 16.5378 5.29853L10.1932 12.8636C10.0644 13.0183 10 13.173 10 13.3277Z" fill="#FF4361"/>
</svg>
