<svg width="14" height="8" viewBox="0 0 14 8" fill="none" xmlns="http://www.w3.org/2000/svg">
<path d="M13.1338 0.160156C13.3217 -0.0422007 13.6385 -0.0541138 13.8408 0.133789C14.0205 0.300785 14.0494 0.568905 13.9219 0.768555L13.8672 0.839844L7.36621 7.83984C7.1783 8.0422 6.86252 8.05411 6.66016 7.86621C6.48044 7.69929 6.45073 7.43112 6.57812 7.23145L6.63379 7.16016L13.1338 0.160156ZM9.63574 0.158203C9.82446 -0.0430587 10.1403 -0.0536334 10.3418 0.134766C10.5208 0.302531 10.5493 0.571414 10.4209 0.770508L10.3652 0.841797L3.80371 7.8418C3.62909 8.02809 3.3471 8.04977 3.14746 7.90625L3.07617 7.84473L0.137695 4.75781C-0.0525773 4.55779 -0.0446964 4.24114 0.155273 4.05078C0.332967 3.88174 0.602517 3.86931 0.793945 4.00879L0.862305 4.06836L3.43555 6.77148L9.63574 0.158203Z" fill="#FF4361"/>
</svg>
