<svg width="24" height="24" viewBox="0 0 24 24" fill="none" xmlns="http://www.w3.org/2000/svg">
<path d="M4.2998 0.400391C4.90877 0.400391 5.44034 0.628249 5.82617 1.16992H5.82715L8.57812 5.02051V5.02148C8.98758 5.59892 9.13867 6.02399 9.13867 6.37402C9.13859 6.80266 8.89777 7.22187 8.34082 7.80371L7.42773 8.72852L7.42285 8.7334L7.41797 8.73926C7.20297 8.97356 7.12207 9.25109 7.12207 9.49121C7.12211 9.77358 7.20971 10.0134 7.30664 10.1934V10.1943C7.53761 10.6417 7.96135 11.2115 8.4707 11.8145C8.98544 12.4237 9.60592 13.088 10.2461 13.7275C11.5155 14.9956 12.9211 16.199 13.7764 16.6602V16.6592C13.9449 16.7574 14.1988 16.8604 14.4863 16.8604C14.7547 16.8603 15.0277 16.7572 15.251 16.5527L15.2578 16.5469L16.1768 15.6279C16.7373 15.068 17.1725 14.8331 17.6064 14.833C17.9017 14.833 18.2648 14.9483 18.749 15.2529L18.9648 15.3955L22.8555 18.1553L22.8564 18.1562C23.3829 18.5277 23.5995 19.0561 23.5996 19.6152C23.5996 20.3608 23.2412 21.1442 22.5996 21.8564C21.5138 23.059 20.1652 23.5996 18.6084 23.5996C16.8474 23.5995 14.8504 22.9129 12.8115 21.7402C10.7775 20.5703 8.73059 18.9331 6.87891 17.0771L6.19531 16.375C4.6278 14.7193 3.25617 12.9432 2.24121 11.1768C1.07861 9.15329 0.400484 7.1708 0.400391 5.41113C0.400391 3.8765 0.919153 2.50212 2.09961 1.39355L2.10059 1.39453L2.10449 1.39062C2.79304 0.726118 3.5599 0.40051 4.2998 0.400391Z" fill="#9BA1A5" stroke="#FBFCFD" stroke-width="0.8"/>
</svg>
