<svg width="20" height="20" viewBox="0 0 20 20" fill="none" xmlns="http://www.w3.org/2000/svg">
<path d="M0 10C0 4.47715 4.47715 0 10 0C15.5228 0 20 4.47715 20 10C20 15.5228 15.5228 20 10 20C4.47715 20 0 15.5228 0 10Z" fill="#9BA1A5"/>
<path d="M9.71233 11.9804C10.2237 11.9804 10.5434 11.6765 10.5708 11.2745C10.5708 11.2353 10.5708 11.1863 10.5708 11.1569C10.6073 10.6471 10.9269 10.3137 11.5205 9.90196C12.4247 9.26471 13 8.69608 13 7.56863C13 5.94118 11.6301 5 10.0046 5C8.44292 5 7.37443 5.76471 7.09132 6.68627C7.03653 6.85294 7 7.02941 7 7.20588C7 7.67647 7.34703 7.97059 7.76712 7.97059C8.30594 7.97059 8.42466 7.67647 8.69863 7.34314C9 6.85294 9.38356 6.56863 9.92237 6.56863C10.6438 6.56863 11.1096 7.0098 11.1096 7.66667C11.1096 8.26471 10.726 8.58824 9.9589 9.16667C9.3105 9.64706 8.83562 10.1471 8.83562 11.0294V11.1373C8.83562 11.6961 9.15525 11.9804 9.71233 11.9804ZM9.7032 15C10.2877 15 10.7717 14.5392 10.7717 13.9118C10.7717 13.2941 10.2968 12.8333 9.7032 12.8333C9.10959 12.8333 8.62557 13.2941 8.62557 13.9118C8.62557 14.5294 9.10959 15 9.7032 15Z" fill="#F5F6F7"/>
</svg>
