<svg width="26" height="25" viewBox="0 0 26 25" fill="none" xmlns="http://www.w3.org/2000/svg">
<path d="M4.98413 24.8162C4.76986 24.6559 4.63824 24.4401 4.58926 24.169C4.54641 23.8978 4.58926 23.568 4.71783 23.1797L6.76389 17.0068C7.03827 16.179 6.74464 15.2689 6.03823 14.7575L0.787565 10.9565C0.463104 10.7222 0.236594 10.4818 0.108034 10.2353C-0.0144041 9.98873 -0.0327703 9.736 0.0529363 9.47711C0.132522 9.22439 0.294752 9.03331 0.539628 8.90386C0.784504 8.77442 1.10897 8.71278 1.51301 8.71895L7.94746 8.75657C8.823 8.76169 9.60008 8.19673 9.86524 7.36229L11.8345 1.16499C11.957 0.776661 12.1131 0.486954 12.3028 0.29587C12.4987 0.0986235 12.7314 0 13.0008 0C13.2701 0 13.4997 0.0986235 13.6895 0.29587C13.8792 0.486954 14.0384 0.776661 14.167 1.16499L16.1281 7.36019C16.3926 8.19569 17.1702 8.76168 18.0466 8.75656L24.4793 8.71895C24.8894 8.71278 25.2139 8.77442 25.4527 8.90386C25.6976 9.03331 25.8628 9.22439 25.9486 9.47711C26.0343 9.736 26.0128 9.98873 25.8843 10.2353C25.7618 10.4818 25.5354 10.7222 25.2047 10.9565L19.9541 14.7575C19.2477 15.2689 18.9541 16.179 19.2284 17.0068L21.2745 23.1797C21.4091 23.568 21.452 23.8978 21.403 24.169C21.354 24.4401 21.2255 24.6559 21.0174 24.8162C20.797 24.9765 20.5521 25.0319 20.2827 24.9826C20.0134 24.9395 19.7134 24.7977 19.3828 24.5573L13.0008 19.8419L6.60949 24.5573C6.27891 24.7977 5.97894 24.9395 5.70957 24.9826C5.44021 25.0319 5.19839 24.9765 4.98413 24.8162ZM6.41665 22.8375C6.43501 22.8622 6.47481 22.853 6.53603 22.8098L12.459 18.2978C12.6304 18.1621 12.8079 18.0943 12.9916 18.0943C13.1813 18.0943 13.365 18.1621 13.5425 18.2978L19.4562 22.8098C19.5236 22.853 19.5665 22.8622 19.5849 22.8375C19.5971 22.8252 19.5941 22.7851 19.5757 22.7173L17.1698 15.6441C17.1208 15.5025 17.0993 15.3699 17.1054 15.2466C17.1116 15.1233 17.1453 15.0092 17.2065 14.9045C17.2677 14.7997 17.3626 14.7041 17.4912 14.6178L23.5702 10.337C23.6314 10.2938 23.6559 10.2599 23.6437 10.2353C23.6376 10.2106 23.5978 10.1983 23.5243 10.1983L16.0954 10.3C15.8749 10.3062 15.6944 10.2599 15.5536 10.1613C15.4127 10.0627 15.3057 9.90551 15.2322 9.68977L13.0742 2.54264C13.0558 2.46868 13.0314 2.43168 13.0008 2.43168C12.9701 2.43168 12.9426 2.46868 12.9181 2.54264L10.7601 9.68977C10.6928 9.90551 10.5857 10.0627 10.4387 10.1613C10.2979 10.2599 10.1173 10.3062 9.89695 10.3L2.4772 10.1983C2.40375 10.1983 2.36089 10.2106 2.34864 10.2353C2.33641 10.2599 2.36089 10.2938 2.42211 10.337L8.51034 14.6178C8.63278 14.7041 8.7246 14.7997 8.78582 14.9045C8.85316 15.0092 8.88684 15.1233 8.88684 15.2466C8.89295 15.3699 8.87154 15.5025 8.82255 15.6441L6.41665 22.7173C6.39829 22.7851 6.39829 22.8252 6.41665 22.8375Z" fill="#FF4361"/>
<path d="M6.41665 22.8375C6.43501 22.8622 6.47481 22.853 6.53603 22.8098L12.459 18.2978C12.6304 18.1621 12.8079 18.0943 12.9916 18.0943C13.1813 18.0943 13.365 18.1621 13.5425 18.2978L19.4562 22.8098C19.5236 22.853 19.5665 22.8622 19.5849 22.8375C19.5971 22.8252 19.5941 22.7851 19.5757 22.7173L17.1698 15.6441C17.1208 15.5025 17.0993 15.3699 17.1054 15.2466C17.1116 15.1233 17.1453 15.0092 17.2065 14.9045C17.2677 14.7997 17.3626 14.7041 17.4912 14.6178L23.5702 10.337C23.6314 10.2938 23.6559 10.2599 23.6437 10.2353C23.6376 10.2106 23.5978 10.1983 23.5243 10.1983L16.0954 10.3C15.8749 10.3062 15.6944 10.2599 15.5536 10.1613C15.4127 10.0627 15.3057 9.90551 15.2322 9.68977L13.0742 2.54264C13.0558 2.46868 13.0314 2.43168 13.0008 2.43168C12.9701 2.43168 12.9426 2.46868 12.9181 2.54264L10.7601 9.68977C10.6928 9.90551 10.5857 10.0627 10.4387 10.1613C10.2979 10.2599 10.1173 10.3062 9.89695 10.3L2.4772 10.1983C2.40375 10.1983 2.36089 10.2106 2.34864 10.2353C2.33641 10.2599 2.36089 10.2938 2.42211 10.337L8.51034 14.6178C8.63278 14.7041 8.7246 14.7997 8.78582 14.9045C8.85316 15.0092 8.88684 15.1233 8.88684 15.2466C8.89295 15.3699 8.87154 15.5025 8.82255 15.6441L6.41665 22.7173C6.39829 22.7851 6.39829 22.8252 6.41665 22.8375Z" fill="#FF4361"/>
</svg>
