<svg width="14" height="13" viewBox="0 0 14 13" fill="none" xmlns="http://www.w3.org/2000/svg">
<path d="M2.68376 12.9044C2.56838 12.8211 2.49752 12.7089 2.47114 12.5679C2.44807 12.4268 2.47114 12.2553 2.54037 12.0534L3.4011 9.54566C3.6907 8.7019 3.38648 7.76835 2.65535 7.25723L0.424073 5.69737C0.249364 5.57556 0.127397 5.45056 0.058172 5.32235C-0.00775608 5.19414 -0.0176456 5.06272 0.0285041 4.9281C0.071358 4.79668 0.158713 4.69732 0.290569 4.63001C0.422425 4.5627 0.597136 4.53065 0.814696 4.53385L3.61602 4.54967C4.48387 4.55457 5.25584 3.99921 5.5271 3.17483L6.37244 0.605797C6.43838 0.403864 6.52243 0.253216 6.62459 0.153853C6.73008 0.0512842 6.85536 0 7.0004 0C7.14545 0 7.26906 0.0512842 7.37127 0.153853C7.47343 0.253216 7.55915 0.403864 7.62837 0.605797L8.46978 3.17267C8.74037 3.99815 9.51289 4.55457 10.3816 4.54966L13.1812 4.53385C13.402 4.53065 13.5767 4.5627 13.7053 4.63001C13.8371 4.69732 13.9261 4.79668 13.9723 4.9281C14.0185 5.06272 14.0069 5.19414 13.9377 5.32235C13.8718 5.45056 13.7498 5.57556 13.5718 5.69737L11.3405 7.25723C10.6094 7.76835 10.3052 8.7019 10.5948 9.54566L11.4555 12.0534C11.528 12.2553 11.5511 12.4268 11.5247 12.5679C11.4983 12.7089 11.4291 12.8211 11.3171 12.9044C11.1984 12.9878 11.0665 13.0166 10.9215 12.9909C10.7764 12.9685 10.6149 12.8948 10.4369 12.7698L7.0004 10.3178L3.55896 12.7698C3.38095 12.8948 3.21943 12.9685 3.07438 12.9909C2.92934 13.0166 2.79913 12.9878 2.68376 12.9044ZM3.45512 11.8755C3.46501 11.8884 3.48643 11.8835 3.5194 11.8611L6.7087 9.51486C6.80097 9.44432 6.89658 9.40904 6.99546 9.40904C7.09762 9.40904 7.19656 9.44432 7.29211 9.51486L10.4764 11.8611C10.5127 11.8835 10.5358 11.8884 10.5457 11.8755C10.5523 11.8691 10.5507 11.8483 10.5408 11.813L9.24529 8.13495C9.2189 8.06128 9.20734 7.99235 9.21062 7.92823C9.21395 7.86411 9.23206 7.8048 9.26506 7.75036C9.298 7.69585 9.34911 7.64616 9.41833 7.60127L12.6917 5.37523C12.7246 5.3528 12.7378 5.33517 12.7312 5.32235C12.7279 5.30953 12.7065 5.30312 12.6669 5.30312L8.66676 5.356C8.54804 5.35921 8.45083 5.33517 8.375 5.28389C8.29917 5.2326 8.2415 5.15086 8.20195 5.03868L7.03996 1.32217C7.03007 1.28371 7.01691 1.26448 7.0004 1.26448C6.9839 1.26448 6.96907 1.28371 6.95591 1.32217L5.79392 5.03868C5.75766 5.15086 5.69997 5.2326 5.62086 5.28389C5.54504 5.33517 5.44779 5.35921 5.32913 5.356L1.33388 5.30312C1.29433 5.30312 1.27125 5.30953 1.26465 5.32235C1.25807 5.33517 1.27125 5.3528 1.30421 5.37523L4.58249 7.60127C4.64842 7.64616 4.69786 7.69585 4.73083 7.75036C4.76709 7.8048 4.78522 7.86411 4.78522 7.92823C4.78851 7.99235 4.77698 8.06128 4.7506 8.13495L3.45512 11.813C3.44523 11.8483 3.44523 11.8691 3.45512 11.8755Z" fill="#FF4361"/>
<path d="M3.45512 11.8755C3.46501 11.8884 3.48643 11.8835 3.5194 11.8611L6.7087 9.51486C6.80097 9.44432 6.89658 9.40904 6.99546 9.40904C7.09762 9.40904 7.19656 9.44432 7.29211 9.51486L10.4764 11.8611C10.5127 11.8835 10.5358 11.8884 10.5457 11.8755C10.5523 11.8691 10.5507 11.8483 10.5408 11.813L9.24529 8.13495C9.2189 8.06128 9.20734 7.99235 9.21062 7.92823C9.21395 7.86411 9.23206 7.8048 9.26506 7.75036C9.298 7.69585 9.34911 7.64616 9.41833 7.60127L12.6917 5.37523C12.7246 5.3528 12.7378 5.33517 12.7312 5.32235C12.7279 5.30953 12.7065 5.30312 12.6669 5.30312L8.66676 5.356C8.54804 5.35921 8.45083 5.33517 8.375 5.28389C8.29917 5.2326 8.2415 5.15086 8.20195 5.03868L7.03996 1.32217C7.03007 1.28371 7.01691 1.26448 7.0004 1.26448C6.9839 1.26448 6.96907 1.28371 6.95591 1.32217L5.79392 5.03868C5.75766 5.15086 5.69997 5.2326 5.62086 5.28389C5.54504 5.33517 5.44779 5.35921 5.32913 5.356L1.33388 5.30312C1.29433 5.30312 1.27125 5.30953 1.26465 5.32235C1.25807 5.33517 1.27125 5.3528 1.30421 5.37523L4.58249 7.60127C4.64842 7.64616 4.69786 7.69585 4.73083 7.75036C4.76709 7.8048 4.78522 7.86411 4.78522 7.92823C4.78851 7.99235 4.77698 8.06128 4.7506 8.13495L3.45512 11.813C3.44523 11.8483 3.44523 11.8691 3.45512 11.8755Z" fill="#FF4361"/>
</svg>
