<svg width="20" height="20" viewBox="0 0 20 20" fill="none" xmlns="http://www.w3.org/2000/svg">
<path d="M10 20C15.4695 20 20 15.4792 20 10C20 4.53049 15.4695 0 9.99032 0C4.52081 0 0 4.53049 0 10C0 15.4792 4.53049 20 10 20ZM3.60116 7.09584C3.60116 5.96321 4.20136 5.34366 5.31462 5.34366H5.35334C5.51791 5.15005 5.75992 5.0242 6.0213 5.0242C6.515 5.0242 6.92159 5.43078 6.92159 5.92449C6.92159 6.4182 6.515 6.82478 6.0213 6.82478C5.75992 6.82478 5.51791 6.69893 5.36302 6.52469H5.2759C4.93708 6.52469 4.78219 6.69893 4.78219 7.08616C4.78219 8.6544 6.22459 10.8325 7.26041 10.8325C8.3059 10.8325 9.75799 8.6544 9.75799 7.08616C9.75799 6.69893 9.59342 6.52469 9.2546 6.52469H9.15779C9.0029 6.69893 8.76089 6.82478 8.49952 6.82478C8.00581 6.82478 7.60891 6.4182 7.60891 5.92449C7.60891 5.43078 8.01549 5.0242 8.49952 5.0242C8.77057 5.0242 9.01258 5.15005 9.16747 5.34366H9.21588C10.3291 5.34366 10.9293 5.96321 10.9293 7.09584C10.9293 9.09003 9.34172 11.4908 7.85092 11.9264C7.91868 13.4366 8.41239 14.2594 9.2062 14.2594C10.1065 14.2594 10.5034 13.514 10.8132 11.6651C11.181 9.63214 11.8683 8.76089 13.1365 8.76089C14.395 8.76089 15.0726 9.68054 15.2759 11.5973C15.9342 11.8103 16.4279 12.4298 16.4279 13.1655C16.4279 14.0852 15.6825 14.8306 14.7435 14.8306C13.8238 14.8306 13.0881 14.0949 13.0881 13.1655C13.0881 12.4685 13.514 11.878 14.1239 11.636C14.0174 10.455 13.698 9.92256 13.1365 9.92256C12.546 9.92256 12.2168 10.4743 11.9748 11.9264C11.5876 14.3466 10.7357 15.4308 9.22556 15.4308C7.67667 15.4308 6.77638 14.1626 6.67957 11.9264C5.18877 11.4811 3.60116 9.07067 3.60116 7.09584ZM14.1433 13.1655C14.1433 13.5044 14.4143 13.7851 14.7531 13.7851C15.092 13.7851 15.3727 13.5044 15.3727 13.1655C15.3727 12.8267 15.092 12.546 14.7531 12.546C14.4143 12.546 14.1433 12.8267 14.1433 13.1655Z" fill="#F5F5F7"/>
</svg>
