<svg width="20" height="20" viewBox="0 0 20 20" fill="none" xmlns="http://www.w3.org/2000/svg">
<path d="M9.99517 20C15.4761 20 20 15.4761 20 9.99517C20 4.52392 15.4664 0 9.9855 0C4.51426 0 0 4.52392 0 9.99517C0 15.4761 4.52392 20 9.99517 20ZM7.52054 15.7951C6.79555 15.7951 6.37023 15.4084 6.34123 14.6834L6.0029 7.03722H5.25858C4.98792 7.03722 4.76559 6.83422 4.77525 6.56356C4.77525 6.28323 4.98792 6.07057 5.25858 6.07057H7.53987V5.34558C7.53987 4.49493 8.10053 3.96327 9.03818 3.96327H10.9232C11.8608 3.96327 12.4408 4.49493 12.4408 5.34558V6.07057H14.7028C14.9831 6.07057 15.2054 6.28323 15.1957 6.56356C15.1861 6.83422 14.9831 7.03722 14.7028 7.03722H13.9874L13.6491 14.6834C13.6201 15.4084 13.1754 15.7951 12.4601 15.7951H7.52054ZM8.62252 6.07057H11.3388L11.3291 5.38424C11.3291 5.13291 11.1551 4.96858 10.8845 4.96858H9.07685C8.80619 4.96858 8.63219 5.13291 8.62252 5.38424V6.07057ZM8.29386 14.2581C8.51619 14.2581 8.66119 14.1131 8.66119 13.9101L8.46786 8.21653C8.46786 7.9942 8.31319 7.85887 8.10053 7.85887C7.85887 7.85887 7.72354 7.9942 7.7332 8.2262L7.91687 13.9101C7.92653 14.1131 8.0812 14.2581 8.29386 14.2581ZM9.97583 14.2581C10.2078 14.2581 10.3625 14.1131 10.3625 13.9101V8.21653C10.3625 7.9942 10.2078 7.85887 9.97583 7.85887C9.74384 7.85887 9.60851 7.9942 9.60851 8.21653V13.9101C9.60851 14.1131 9.74384 14.2581 9.97583 14.2581ZM11.6578 14.2581C11.8705 14.2581 12.0251 14.1131 12.0348 13.9101L12.2185 8.2262C12.2281 7.9942 12.0928 7.85887 11.8608 7.85887C11.6385 7.85887 11.4838 7.9942 11.4838 8.21653L11.2905 13.9101C11.2905 14.1131 11.4355 14.2581 11.6578 14.2581Z" fill="#FE3B30"/>
</svg>
