<svg width="60" height="60" viewBox="0 0 60 60" fill="none" xmlns="http://www.w3.org/2000/svg">
<path d="M30 0C46.5686 0 60 13.4315 60 30C60 46.5686 46.5686 60 30 60C13.4315 60 0 46.5686 0 30C0 13.4315 13.4315 0 30 0Z" fill="#FF4361"/>
<path d="M30 38.3999C23.3047 38.3999 17.1431 39.6 12.2522 44.5217C11.4301 45.349 11.1476 46.7705 12.0411 47.6782C16.612 52.3212 22.9698 55.2 30 55.2C37.0313 55.2 43.3898 52.3205 47.9614 47.6746C48.8549 46.7664 48.5717 45.3451 47.7487 44.5176C42.8578 39.6 36.6958 38.3999 30 38.3999Z" fill="#FBFCFD"/>
<path d="M30 12C24.6982 12 20.4 16.2981 20.4 21.6C20.4 26.9018 24.6982 31.2 30 31.2C35.3018 31.2 39.6 26.9018 39.6 21.6C39.6 16.2981 35.3018 12 30 12Z" fill="#FBFCFD"/>
</svg>
