<svg width="237" height="30" viewBox="0 0 237 30" fill="none" xmlns="http://www.w3.org/2000/svg">
<path d="M4.82542 19.2857L4.86666 28.9286C4.86666 29.217 4.66044 29.4231 4.37174 29.4231H0.494914C0.206214 29.4231 0 29.217 0 28.9286L0.2887 15.1236L0.0412428 1.07143C0.0412428 0.782967 0.247457 0.576923 0.536157 0.576923H6.68134C6.97004 0.576923 7.17626 0.741758 7.25874 0.98901L15.5486 22.9533L23.5497 0.98901C23.6322 0.70055 23.7971 0.576923 24.0858 0.576923H29.8186C30.1073 0.576923 30.3135 0.782967 30.3135 1.07143L30.066 15.1236L30.3135 28.9286C30.3135 29.217 30.1073 29.4231 29.8186 29.4231H25.5293C25.2406 29.4231 25.0344 29.217 25.0344 28.9286V19.2857L25.2406 7.62363L17.4045 29.011C17.322 29.2994 17.1158 29.4231 16.8271 29.4231H13.5277C13.239 29.4231 13.0327 29.2582 12.9503 29.011L4.57796 6.92308L4.82542 19.2857Z" fill="#F5F5F7"/>
<path d="M44.5713 26.4973C47.0871 26.4973 48.7368 25.2198 49.3555 22.6236C49.3967 22.3352 49.6029 22.1703 49.8916 22.1703H53.8097C54.1396 22.1703 54.3459 22.3764 54.2634 22.706C53.6447 26.7033 50.1803 29.9176 44.4888 29.9176C37.6012 29.9176 33.9306 25.3434 33.9306 18.8736C33.9306 12.1978 37.8075 7.70604 44.3651 7.70604C50.9227 7.70604 54.6758 12.0742 54.8408 19.2033C54.8408 19.533 54.6346 19.6978 54.3459 19.6978H39.0447C39.251 24.272 41.0657 26.4973 44.5713 26.4973ZM44.3651 11.1264C41.4368 11.1264 39.7046 12.9808 39.2097 16.4011H49.3142C49.108 13.5989 47.5408 11.1264 44.3651 11.1264Z" fill="#F5F5F7"/>
<path d="M72.756 10.7967L72.6735 1.07143C72.6735 0.782967 72.8797 0.576923 73.1684 0.576923H77.4576C77.7463 0.576923 77.9526 0.782967 77.9526 1.07143L77.7463 14.2582L77.9526 28.9286C77.9526 29.217 77.7463 29.4231 77.4576 29.4231H73.2096C72.8797 29.4231 72.756 29.2582 72.756 28.9286L72.8384 26.5385C71.3537 28.5989 69.1678 29.8352 66.3221 29.8352C60.4243 29.8352 57.3311 25.0549 57.3311 18.8736C57.3311 12.7335 60.713 7.78846 66.4458 7.78846C69.2091 7.78846 71.3537 8.81868 72.756 10.7967ZM67.7243 26.4148C70.9825 26.4148 72.9209 23.9423 72.9622 18.9973C73.0034 14.0522 71.1475 11.2088 67.8481 11.2088C64.2599 11.1264 62.5277 13.9698 62.5277 18.5852C62.5277 23.5302 64.3012 26.456 67.7243 26.4148Z" fill="#F5F5F7"/>
<path d="M95.1963 30C86.5353 30 81.2562 24.0659 81.2562 15.0412C81.2562 5.89286 86.659 0 95.1963 0C101.176 0 106.126 2.55495 107.652 10.0137C107.734 10.3434 107.569 10.5494 107.239 10.5494H103.115C102.826 10.5494 102.62 10.3846 102.579 10.0962C101.713 6.05769 99.0731 4.03846 95.1138 4.03846C89.6285 4.03846 86.6177 8.24176 86.6177 15.0412C86.6177 22.1291 89.7522 25.9615 95.0725 25.9615C99.403 25.9615 102.001 23.6126 102.702 19.2445C102.785 18.956 102.95 18.7912 103.239 18.7912H107.445C107.775 18.7912 107.94 19.0385 107.858 19.4093C106.456 26.8681 101.836 30 95.1963 30Z" fill="#F5F5F7"/>
<path d="M138.852 20.3981L138.894 28.9284C138.894 29.2168 138.687 29.4229 138.399 29.4229H134.151C133.862 29.4229 133.656 29.2168 133.656 28.9284L133.862 19.4916L133.697 8.69485C133.697 8.40639 133.903 8.20035 134.192 8.20035H138.192C138.522 8.20035 138.687 8.36518 138.687 8.69485L138.564 11.3322C139.966 9.31299 142.358 7.70584 145.534 7.70584C149.947 7.70584 152.751 10.6729 152.751 16.03V20.3981L152.875 28.9284C152.875 29.2168 152.669 29.4229 152.38 29.4229H148.173C147.884 29.4229 147.678 29.2168 147.678 28.9284L147.843 20.3981V16.1536C147.843 13.1042 146.194 11.4971 144.008 11.4971C141.533 11.4971 139.182 13.6399 138.852 18.008V20.3981Z" fill="#F5F5F7"/>
<path d="M161.931 20.3981L161.972 28.9284C161.972 29.2168 161.766 29.4229 161.477 29.4229H157.229C156.94 29.4229 156.734 29.2168 156.734 28.9284L156.94 19.4916L156.775 8.69485C156.775 8.40639 156.981 8.20035 157.27 8.20035H161.271C161.601 8.20035 161.766 8.36518 161.766 8.69485L161.642 11.3322C163.044 9.31299 165.436 7.70584 168.612 7.70584C173.025 7.70584 175.829 10.6729 175.829 16.03V20.3981L175.953 28.9284C175.953 29.2168 175.747 29.4229 175.458 29.4229H171.251C170.963 29.4229 170.757 29.2168 170.757 28.9284L170.922 20.3981V16.1536C170.922 13.1042 169.272 11.4971 167.086 11.4971C164.611 11.4971 162.261 13.6399 161.931 18.008V20.3981Z" fill="#F5F5F7"/>
<path d="M189.752 26.4971C192.268 26.4971 193.917 25.2196 194.536 22.6234C194.577 22.335 194.783 22.1701 195.072 22.1701H198.99C199.32 22.1701 199.526 22.3762 199.444 22.7058C198.825 26.7031 195.361 29.9174 189.669 29.9174C182.782 29.9174 179.111 25.3432 179.111 18.8734C179.111 12.1976 182.988 7.70584 189.546 7.70584C196.103 7.70584 199.856 12.074 200.021 19.2031C200.021 19.5328 199.815 19.6976 199.526 19.6976H184.225C184.431 24.2718 186.246 26.4971 189.752 26.4971ZM189.546 11.1262C186.617 11.1262 184.885 12.9806 184.39 16.4009H194.495C194.288 13.5987 192.721 11.1262 189.546 11.1262Z" fill="#F5F5F7"/>
<path d="M212.946 29.9174C206.347 29.9174 202.512 25.5905 202.512 18.8734C202.512 12.1564 206.347 7.70584 213.07 7.70584C218.349 7.70584 221.772 10.6729 222.308 15.1234C222.349 15.4531 222.143 15.6591 221.813 15.6591H218.06C217.771 15.6591 217.607 15.4943 217.524 15.2058C216.988 12.4449 215.214 11.1674 213.07 11.1674C209.482 11.2086 207.749 13.846 207.749 18.8322C207.749 23.9421 209.482 26.4558 213.029 26.4971C215.544 26.4971 217.4 24.8899 217.73 21.8405C217.771 21.5108 217.978 21.346 218.266 21.346H222.102C222.432 21.346 222.638 21.5108 222.597 21.7992C222.102 26.4971 218.431 29.9174 212.946 29.9174Z" fill="#F5F5F7"/>
<path d="M231.432 2.88441C231.721 2.88441 231.927 3.09046 231.927 3.37892L231.845 8.20035H236.505C236.794 8.20035 237 8.40639 237 8.69485V11.3734C237 11.6619 236.794 11.8679 236.505 11.8679H231.803L231.845 23.2416C231.845 25.4256 232.752 26.085 234.278 26.085C235.103 26.085 235.845 25.9613 236.423 25.8377C236.753 25.7553 236.959 25.9201 236.959 26.2498V28.6811C236.959 28.9696 236.835 29.1344 236.546 29.2168C235.515 29.5465 234.319 29.7938 233.164 29.7938C229.824 29.7938 226.731 28.1042 226.731 23.3652L226.772 11.8679H224.503C224.215 11.8679 224.008 11.6619 224.008 11.3734V8.69485C224.008 8.40639 224.215 8.20035 224.503 8.20035H226.731L226.648 3.37892C226.648 3.09046 226.854 2.88441 227.143 2.88441H231.432Z" fill="#F5F5F7"/>
<path d="M110.222 18.853C110.222 12.9926 114.976 8.24176 120.842 8.24176C126.707 8.24176 131.462 12.9926 131.462 18.853C131.462 24.7135 126.707 29.4643 120.842 29.4643C114.976 29.4643 110.222 24.7135 110.222 18.853Z" fill="#F5F5F7"/>
<path d="M120.842 26.9917C121.024 26.9917 121.292 26.8399 121.509 26.6882C125.439 23.9571 127.956 20.7556 127.956 17.5162C127.956 14.7168 126.163 12.7746 123.921 12.7746C122.522 12.7746 121.474 13.6091 120.842 14.8533C120.223 13.6091 119.168 12.7746 117.77 12.7746C115.52 12.7746 113.727 14.7168 113.727 17.5162C113.727 20.7556 116.251 23.9571 120.174 26.6882C120.392 26.8399 120.659 26.9917 120.842 26.9917Z" fill="#FF4361"/>
</svg>
